<svg width="0" height="0" class="hidden">
  <symbol fill="none" xmlns="http://www.w3.org/2000/svg" viewBox="0 0 8 16" id="arr-back">
    <path d="M6.36534 11.6133L5.65801 12.32L1.80534 8.46867C1.74324 8.40695 1.69395 8.33357 1.66032 8.25274C1.62669 8.1719 1.60937 8.08522 1.60937 7.99766C1.60937 7.91011 1.62669 7.82343 1.66032 7.74259C1.69395 7.66176 1.74324 7.58838 1.80534 7.52667L5.65801 3.67333L6.36468 4.38L2.74867 7.99667L6.36534 11.6133Z" fill="#1D1D1D"></path>
  </symbol>
  <symbol fill="none" xmlns="http://www.w3.org/2000/svg" viewBox="0 0 24 12" id="arr-down">
    <g clip-path="url(#clip0_134_1768)">
      <path d="M17.4198 2.45199L18.4798 3.51299L12.7028 9.29199C12.6102 9.38514 12.5001 9.45907 12.3789 9.50952C12.2576 9.55997 12.1276 9.58594 11.9963 9.58594C11.8649 9.58594 11.7349 9.55997 11.6137 9.50952C11.4924 9.45907 11.3823 9.38514 11.2898 9.29199L5.50977 3.51299L6.56977 2.45299L11.9948 7.87699L17.4198 2.45199Z" fill="#B87000"></path>
    </g>
    <defs>
      <clipPath id="clip0_134_1768">
        <rect width="12" height="24" fill="white" transform="translate(24) rotate(90)"></rect>
      </clipPath>
    </defs>
  </symbol>
  <symbol fill="none" xmlns="http://www.w3.org/2000/svg" viewBox="0 0 24 24" id="mdi-address">
    <path d="M12 11.5C11.337 11.5 10.7011 11.2366 10.2322 10.7678C9.76339 10.2989 9.5 9.66304 9.5 9C9.5 8.33696 9.76339 7.70107 10.2322 7.23223C10.7011 6.76339 11.337 6.5 12 6.5C12.663 6.5 13.2989 6.76339 13.7678 7.23223C14.2366 7.70107 14.5 8.33696 14.5 9C14.5 9.3283 14.4353 9.65339 14.3097 9.95671C14.1841 10.26 13.9999 10.5356 13.7678 10.7678C13.5356 10.9999 13.26 11.1841 12.9567 11.3097C12.6534 11.4353 12.3283 11.5 12 11.5ZM12 2C10.1435 2 8.36301 2.7375 7.05025 4.05025C5.7375 5.36301 5 7.14348 5 9C5 14.25 12 22 12 22C12 22 19 14.25 19 9C19 7.14348 18.2625 5.36301 16.9497 4.05025C15.637 2.7375 13.8565 2 12 2Z" fill="#FAFAFA"></path>
  </symbol>
  <symbol fill="none" xmlns="http://www.w3.org/2000/svg" viewBox="0 0 24 24" id="mdi-pinterest">
    <path d="M9.04 21.54C10 21.83 10.97 22 12 22C14.6522 22 17.1957 20.9464 19.0711 19.0711C20.9464 17.1957 22 14.6522 22 12C22 10.6868 21.7413 9.38642 21.2388 8.17317C20.7362 6.95991 19.9997 5.85752 19.0711 4.92893C18.1425 4.00035 17.0401 3.26375 15.8268 2.7612C14.6136 2.25866 13.3132 2 12 2C10.6868 2 9.38642 2.25866 8.17317 2.7612C6.95991 3.26375 5.85752 4.00035 4.92893 4.92893C3.05357 6.8043 2 9.34784 2 12C2 16.25 4.67 19.9 8.44 21.34C8.35 20.56 8.26 19.27 8.44 18.38L9.59 13.44C9.59 13.44 9.3 12.86 9.3 11.94C9.3 10.56 10.16 9.53 11.14 9.53C12 9.53 12.4 10.16 12.4 10.97C12.4 11.83 11.83 13.06 11.54 14.24C11.37 15.22 12.06 16.08 13.06 16.08C14.84 16.08 16.22 14.18 16.22 11.5C16.22 9.1 14.5 7.46 12.03 7.46C9.21 7.46 7.55 9.56 7.55 11.77C7.55 12.63 7.83 13.5 8.29 14.07C8.38 14.13 8.38 14.21 8.35 14.36L8.06 15.45C8.06 15.62 7.95 15.68 7.78 15.56C6.5 15 5.76 13.18 5.76 11.71C5.76 8.55 8 5.68 12.32 5.68C15.76 5.68 18.44 8.15 18.44 11.43C18.44 14.87 16.31 17.63 13.26 17.63C12.29 17.63 11.34 17.11 11 16.5L10.33 18.87C10.1 19.73 9.47 20.88 9.04 21.57V21.54Z" fill="#FAFAFA"></path>
  </symbol>
  <symbol fill="none" xmlns="http://www.w3.org/2000/svg" viewBox="0 0 24 24" id="mdi-instagram">
    <path d="M7.8 2H16.2C19.4 2 22 4.6 22 7.8V16.2C22 17.7383 21.3889 19.2135 20.3012 20.3012C19.2135 21.3889 17.7383 22 16.2 22H7.8C4.6 22 2 19.4 2 16.2V7.8C2 6.26174 2.61107 4.78649 3.69878 3.69878C4.78649 2.61107 6.26174 2 7.8 2ZM7.6 4C6.64522 4 5.72955 4.37928 5.05442 5.05442C4.37928 5.72955 4 6.64522 4 7.6V16.4C4 18.39 5.61 20 7.6 20H16.4C17.3548 20 18.2705 19.6207 18.9456 18.9456C19.6207 18.2705 20 17.3548 20 16.4V7.6C20 5.61 18.39 4 16.4 4H7.6ZM17.25 5.5C17.5815 5.5 17.8995 5.6317 18.1339 5.86612C18.3683 6.10054 18.5 6.41848 18.5 6.75C18.5 7.08152 18.3683 7.39946 18.1339 7.63388C17.8995 7.8683 17.5815 8 17.25 8C16.9185 8 16.6005 7.8683 16.3661 7.63388C16.1317 7.39946 16 7.08152 16 6.75C16 6.41848 16.1317 6.10054 16.3661 5.86612C16.6005 5.6317 16.9185 5.5 17.25 5.5ZM12 7C13.3261 7 14.5979 7.52678 15.5355 8.46447C16.4732 9.40215 17 10.6739 17 12C17 13.3261 16.4732 14.5979 15.5355 15.5355C14.5979 16.4732 13.3261 17 12 17C10.6739 17 9.40215 16.4732 8.46447 15.5355C7.52678 14.5979 7 13.3261 7 12C7 10.6739 7.52678 9.40215 8.46447 8.46447C9.40215 7.52678 10.6739 7 12 7ZM12 9C11.2044 9 10.4413 9.31607 9.87868 9.87868C9.31607 10.4413 9 11.2044 9 12C9 12.7956 9.31607 13.5587 9.87868 14.1213C10.4413 14.6839 11.2044 15 12 15C12.7956 15 13.5587 14.6839 14.1213 14.1213C14.6839 13.5587 15 12.7956 15 12C15 11.2044 14.6839 10.4413 14.1213 9.87868C13.5587 9.31607 12.7956 9 12 9Z" fill="#FAFAFA"></path>
  </symbol>
  <symbol fill="none" xmlns="http://www.w3.org/2000/svg" viewBox="0 0 24 24" id="ic-email">
    <path d="M22 6C22 4.9 21.1 4 20 4H4C2.9 4 2 4.9 2 6V18C2 19.1 2.9 20 4 20H20C21.1 20 22 19.1 22 18V6ZM20 6L12 11L4 6H20ZM20 18H4V8L12 13L20 8V18Z" fill="#FAFAFA"></path>
  </symbol>
  <symbol fill="none" xmlns="http://www.w3.org/2000/svg" viewBox="0 0 68 12" id="stars">
    <path d="M10.6415 4.1378L7.66615 3.70538L6.33608 1.00889C6.29975 0.935063 6.23998 0.875297 6.16615 0.838969C5.981 0.747563 5.756 0.823735 5.66342 1.00889L4.33334 3.70538L1.35795 4.1378C1.27592 4.14952 1.20092 4.18819 1.1435 4.24678C1.07408 4.31813 1.03582 4.41413 1.03714 4.51367C1.03846 4.61321 1.07924 4.70815 1.15053 4.77764L3.30326 6.87647L2.79467 9.84014C2.78274 9.90908 2.79037 9.97999 2.81669 10.0448C2.84301 10.1096 2.88697 10.1658 2.94358 10.2069C3.00019 10.248 3.06719 10.2725 3.13697 10.2774C3.20676 10.2824 3.27655 10.2677 3.33842 10.2351L5.99975 8.83584L8.66108 10.2351C8.73373 10.2737 8.81811 10.2866 8.89897 10.2726C9.10287 10.2374 9.23998 10.044 9.20483 9.84014L8.69623 6.87647L10.849 4.77764C10.9076 4.72022 10.9462 4.64522 10.958 4.56319C10.9896 4.35811 10.8466 4.16827 10.6415 4.1378Z" fill="#F1A31B"></path>
    <path d="M24.6415 4.1378L21.6662 3.70538L20.3361 1.00889C20.2997 0.935063 20.24 0.875297 20.1662 0.838969C19.981 0.747563 19.756 0.823735 19.6634 1.00889L18.3333 3.70538L15.358 4.1378C15.2759 4.14952 15.2009 4.18819 15.1435 4.24678C15.0741 4.31813 15.0358 4.41413 15.0371 4.51367C15.0385 4.61321 15.0792 4.70815 15.1505 4.77764L17.3033 6.87647L16.7947 9.84014C16.7827 9.90908 16.7904 9.97999 16.8167 10.0448C16.843 10.1096 16.887 10.1658 16.9436 10.2069C17.0002 10.248 17.0672 10.2725 17.137 10.2774C17.2068 10.2824 17.2765 10.2677 17.3384 10.2351L19.9997 8.83584L22.6611 10.2351C22.7337 10.2737 22.8181 10.2866 22.899 10.2726C23.1029 10.2374 23.24 10.044 23.2048 9.84014L22.6962 6.87647L24.849 4.77764C24.9076 4.72022 24.9462 4.64522 24.958 4.56319C24.9896 4.35811 24.8466 4.16827 24.6415 4.1378Z" fill="#F1A31B"></path>
    <path d="M38.6415 4.1378L35.6662 3.70538L34.3361 1.00889C34.2997 0.935063 34.24 0.875297 34.1662 0.838969C33.981 0.747563 33.756 0.823735 33.6634 1.00889L32.3333 3.70538L29.358 4.1378C29.2759 4.14952 29.2009 4.18819 29.1435 4.24678C29.0741 4.31813 29.0358 4.41413 29.0371 4.51367C29.0385 4.61321 29.0792 4.70815 29.1505 4.77764L31.3033 6.87647L30.7947 9.84014C30.7827 9.90908 30.7904 9.97999 30.8167 10.0448C30.843 10.1096 30.887 10.1658 30.9436 10.2069C31.0002 10.248 31.0672 10.2725 31.137 10.2774C31.2068 10.2824 31.2765 10.2677 31.3384 10.2351L33.9997 8.83584L36.6611 10.2351C36.7337 10.2737 36.8181 10.2866 36.899 10.2726C37.1029 10.2374 37.24 10.044 37.2048 9.84014L36.6962 6.87647L38.849 4.77764C38.9076 4.72022 38.9462 4.64522 38.958 4.56319C38.9896 4.35811 38.8466 4.16827 38.6415 4.1378Z" fill="#F1A31B"></path>
    <path d="M52.6415 4.1378L49.6662 3.70538L48.3361 1.00889C48.2997 0.935063 48.24 0.875297 48.1662 0.838969C47.981 0.747563 47.756 0.823735 47.6634 1.00889L46.3333 3.70538L43.358 4.1378C43.2759 4.14952 43.2009 4.18819 43.1435 4.24678C43.0741 4.31813 43.0358 4.41413 43.0371 4.51367C43.0385 4.61321 43.0792 4.70815 43.1505 4.77764L45.3033 6.87647L44.7947 9.84014C44.7827 9.90908 44.7904 9.97999 44.8167 10.0448C44.843 10.1096 44.887 10.1658 44.9436 10.2069C45.0002 10.248 45.0672 10.2725 45.137 10.2774C45.2068 10.2824 45.2765 10.2677 45.3384 10.2351L47.9997 8.83584L50.6611 10.2351C50.7337 10.2737 50.8181 10.2866 50.899 10.2726C51.1029 10.2374 51.24 10.044 51.2048 9.84014L50.6962 6.87647L52.849 4.77764C52.9076 4.72022 52.9462 4.64522 52.958 4.56319C52.9896 4.35811 52.8466 4.16827 52.6415 4.1378Z" fill="#F1A31B"></path>
    <path d="M66.6415 4.1378L63.6662 3.70538L62.3361 1.00889C62.2997 0.935063 62.24 0.875297 62.1662 0.838969C61.981 0.747563 61.756 0.823735 61.6634 1.00889L60.3333 3.70538L57.358 4.1378C57.2759 4.14952 57.2009 4.18819 57.1435 4.24678C57.0741 4.31813 57.0358 4.41413 57.0371 4.51367C57.0385 4.61321 57.0792 4.70815 57.1505 4.77764L59.3033 6.87647L58.7947 9.84014C58.7827 9.90908 58.7904 9.97999 58.8167 10.0448C58.843 10.1096 58.887 10.1658 58.9436 10.2069C59.0002 10.248 59.0672 10.2725 59.137 10.2774C59.2068 10.2824 59.2765 10.2677 59.3384 10.2351L61.9997 8.83584L64.6611 10.2351C64.7337 10.2737 64.8181 10.2866 64.899 10.2726C65.1029 10.2374 65.24 10.044 65.2048 9.84014L64.6962 6.87647L66.849 4.77764C66.9076 4.72022 66.9462 4.64522 66.958 4.56319C66.9896 4.35811 66.8466 4.16827 66.6415 4.1378Z" fill="#F1A31B"></path>
  </symbol>
  <symbol fill="none" xmlns="http://www.w3.org/2000/svg" viewBox="0 0 28 28" id="left-icon">
    <path d="M4 0.5H24C24.9283 0.5 25.8182 0.869013 26.4746 1.52539C27.131 2.18177 27.5 3.07174 27.5 4V24C27.5 24.9283 27.131 25.8182 26.4746 26.4746C25.8182 27.131 24.9283 27.5 24 27.5H4C3.07174 27.5 2.18177 27.131 1.52539 26.4746C0.869013 25.8182 0.5 24.9283 0.5 24V4C0.5 3.07174 0.869013 2.18177 1.52539 1.52539C2.18177 0.869013 3.07174 0.5 4 0.5Z" stroke="#B87000"></path>
    <path d="M22.833 15.0078C23.0124 14.8215 23.1125 14.5729 23.1125 14.3143C23.1125 14.0557 23.0124 13.8071 22.833 13.6208L17.72 8.30981C17.095 7.66081 15.999 8.10281 15.999 9.00281V12.0658C15.999 12.1321 15.9727 12.1957 15.9258 12.2426C15.8789 12.2895 15.8153 12.3158 15.749 12.3158H6C5.73478 12.3158 5.48043 12.4212 5.29289 12.6087C5.10536 12.7962 5 13.0506 5 13.3158V15.3158C5 15.581 5.10536 15.8354 5.29289 16.0229C5.48043 16.2105 5.73478 16.3158 6 16.3158H15.75C15.8163 16.3158 15.8799 16.3421 15.9268 16.389C15.9737 16.4359 16 16.4995 16 16.5658V19.6288C16 20.5288 17.096 20.9708 17.72 20.3218L22.833 15.0078Z" fill="#B87000"></path>
  </symbol>
  <symbol fill="none" xmlns="http://www.w3.org/2000/svg" viewBox="0 0 28 28" id="right-icon">
    <path d="M24 27.5L4 27.5C3.07174 27.5 2.18177 27.131 1.52539 26.4746C0.869014 25.8182 0.5 24.9283 0.5 24L0.5 4C0.5 3.07174 0.869014 2.18177 1.52539 1.52539C2.18177 0.869014 3.07174 0.5 4 0.5L24 0.5C24.9283 0.5 25.8182 0.869014 26.4746 1.52539C27.131 2.18177 27.5 3.07174 27.5 4L27.5 24C27.5 24.9283 27.131 25.8182 26.4746 26.4746C25.8182 27.131 24.9283 27.5 24 27.5Z" stroke="#B87000"></path>
    <path d="M5.167 12.9922C4.98765 13.1785 4.88746 13.4271 4.88746 13.6857C4.88746 13.9443 4.98765 14.1929 5.167 14.3792L10.28 19.6902C10.905 20.3392 12.001 19.8972 12.001 18.9972V15.9342C12.001 15.8679 12.0273 15.8043 12.0742 15.7574C12.1211 15.7105 12.1847 15.6842 12.251 15.6842H22C22.2652 15.6842 22.5196 15.5788 22.7071 15.3913C22.8946 15.2038 23 14.9494 23 14.6842V12.6842C23 12.419 22.8946 12.1646 22.7071 11.9771C22.5196 11.7895 22.2652 11.6842 22 11.6842L12.25 11.6842C12.1837 11.6842 12.1201 11.6579 12.0732 11.611C12.0263 11.5641 12 11.5005 12 11.4342V8.37119C12 7.47119 10.904 7.02919 10.28 7.67819L5.167 12.9922Z" fill="#B87000"></path>
  </symbol>
  <symbol fill="none" xmlns="http://www.w3.org/2000/svg" viewBox="0 0 88 30" id="ornament">
    <path d="M44.1077 0.611402C45.7492 1.14363 46.8073 2.89936 47.5924 4.34909C48.8099 6.94161 49.2907 10.1155 48.3037 12.8704C48.174 13.1683 48.0389 13.4641 47.8928 13.7544C47.8271 13.8859 47.7613 14.0174 47.6936 14.1528C47.9937 13.9941 47.9937 13.9941 48.2998 13.8322C51.3246 12.2569 54.2403 11.1738 57.6865 11.8937C58.8278 12.2914 59.6106 12.9232 60.2444 13.9536C60.5183 14.6384 60.5183 14.6384 60.6428 15.1489C60.9387 15.0503 60.9387 15.0503 61.2405 14.9497C63.8358 14.6313 66.3688 14.6285 68.6116 16.145C69.4796 16.9158 69.8674 17.6227 70.2053 18.7349C70.3818 18.7233 70.5582 18.7117 70.74 18.6998C72.8546 18.6228 74.5906 19.0449 76.5803 19.731C79.426 20.7443 79.426 20.7443 82.3577 20.3286C83.2792 19.8654 84.06 19.31 84.7483 18.5356C84.5141 18.5028 84.2799 18.4699 84.0386 18.436C82.9456 18.1618 82.349 17.4753 81.76 16.5435C81.4428 15.5567 81.561 14.8448 81.9546 13.9131C82.3817 13.1631 82.9544 12.825 83.7522 12.5591C84.7951 12.4804 85.4653 12.5723 86.342 13.1567C87.3737 14.4672 87.5164 15.7088 87.3381 17.3403C86.8471 19.1645 85.9467 20.5737 84.3335 21.5846C82.0216 22.7959 79.6982 22.8177 77.2402 22.0718C76.4554 21.8252 75.679 21.5568 74.9018 21.2873C73.3052 20.7356 71.8973 20.4844 70.2053 20.5278C70.1971 20.7209 70.1889 20.9141 70.1804 21.113C70.0076 22.3253 69.2448 23.3384 68.3377 24.1262C67.5875 24.3941 67.0171 24.3782 66.221 24.313C65.7461 23.8381 65.7636 23.7166 65.7603 23.0679C65.7927 21.9988 66.0313 21.3175 66.8007 20.5434C67.9156 19.5317 67.9156 19.5317 68.4124 19.5317C68.0138 18.3361 67.549 17.7225 66.4202 17.1411C64.6652 16.5269 62.856 16.668 61.0413 16.9419C61.0577 17.1966 61.0741 17.4514 61.0911 17.7139C61.081 19.848 59.8822 21.4134 58.4826 22.9138C57.3654 23.9898 56.0789 24.6408 54.5169 24.7496C53.6646 24.7077 53.1773 24.5828 52.4624 24.1013C51.8839 23.2243 51.7822 22.4882 51.9519 21.4772C52.4848 19.5454 54.0294 18.2028 55.6624 17.1411C58.126 15.7466 58.126 15.7466 58.8499 15.7466C58.4937 14.9453 58.2389 14.3771 57.4553 13.9536C54.9815 13.0701 52.5612 13.8755 50.2835 14.9497C48.8232 15.7066 47.5024 16.6194 46.2991 17.7388C46.4388 17.8497 46.5785 17.9606 46.7224 18.0749C50.9445 21.471 50.9445 21.471 51.4344 23.9013C51.5748 25.2041 51.3479 26.2404 50.5963 27.3184C49.3962 28.7812 47.9747 29.7377 46.0643 29.9672C45.3771 29.9978 44.6959 29.9999 44.0081 29.9907C43.7772 29.9938 43.5463 29.9969 43.3085 30.0001C41.3222 29.9911 39.724 29.6086 38.2432 28.2227C38.0832 28.0773 37.9232 27.9319 37.7584 27.7822C36.7966 26.6916 36.4816 25.5411 36.5374 24.1138C36.9986 21.3741 39.5184 19.4563 41.5178 17.7388C39.3172 15.3181 35.9933 13.7834 32.7468 13.5622C31.6862 13.5496 30.8989 13.7405 29.988 14.3147C29.5407 14.7752 29.3525 15.137 29.1663 15.7466C29.4046 15.8082 29.6429 15.8698 29.8884 15.9333C32.0913 16.6688 34.3547 18.2491 35.616 20.2165C36.1194 21.3202 36.2889 22.2038 35.9272 23.3791C35.6847 23.9243 35.5255 24.1271 35.0557 24.5247C33.5877 24.911 32.2178 24.7414 30.897 23.9893C29.129 22.7918 27.726 21.1814 27.0363 19.1201C26.9646 18.6703 26.9557 18.2439 26.9624 17.7886C26.9642 17.6294 26.966 17.4701 26.9679 17.3061C26.9702 17.1859 26.9725 17.0657 26.9749 16.9419C24.8929 16.6276 22.7014 16.4342 20.8216 17.5668C20.1722 18.0653 19.8277 18.5487 19.6038 19.3325C19.7096 19.4072 19.8154 19.482 19.9244 19.559C20.9192 20.2796 21.7917 20.916 22.1936 22.1216C22.2271 22.5076 22.2271 22.5076 22.231 22.9185C22.2338 23.054 22.2366 23.1896 22.2395 23.3293C22.1936 23.7153 22.1936 23.7153 21.7952 24.313C20.8853 24.4364 20.2564 24.4277 19.4668 23.9394C18.626 23.2664 18.1645 22.3271 17.8108 21.3247C17.8108 21.0617 17.8108 20.7988 17.8108 20.5278C15.3121 20.3162 12.9459 21.2447 10.6436 22.1115C8.67697 22.795 6.30562 22.829 4.37676 22.0126C2.68225 21.0532 1.34996 19.6322 0.757358 17.7582C0.487242 16.3361 0.50427 14.9304 1.24684 13.6657C1.7081 13.0391 2.14138 12.8017 2.86939 12.5591C4.0856 12.4421 4.68844 12.6658 5.65845 13.356C6.36917 14.1125 6.3932 14.9872 6.3635 15.9863C6.17591 16.9596 5.65021 17.5608 4.86158 18.1372C4.31146 18.3659 3.86459 18.4519 3.26783 18.5356C3.54852 19.2374 3.78706 19.4231 4.46314 19.731C4.66807 19.833 4.66807 19.833 4.87714 19.9372C5.01992 20.0047 5.16271 20.0723 5.30982 20.1418C5.52091 20.2439 5.52091 20.2439 5.73627 20.3481C7.01646 20.7908 8.02199 20.7625 9.3191 20.4158C9.52249 20.3629 9.52249 20.3629 9.72998 20.309C10.4763 20.1085 11.2036 19.8762 11.9292 19.6103C13.9623 18.868 15.6459 18.5756 17.8108 18.7349C17.8936 18.461 17.8936 18.461 17.9781 18.1816C18.4571 16.8512 19.4179 15.9824 20.666 15.3489C22.6882 14.588 25.3144 14.4626 27.3733 15.1489C27.4144 14.9805 27.4555 14.812 27.4978 14.6384C27.9482 13.5126 28.6362 12.6741 29.7017 12.0735C32.2747 11.0772 35.2796 11.7537 37.7327 12.7583C38.5481 13.1218 39.3414 13.5227 40.1233 13.9536C40.037 13.7891 40.037 13.7891 39.949 13.6213C38.8984 11.2685 38.9857 8.3939 39.7373 5.95996C40.3845 4.29934 42.0129 0.592308 44.1077 0.611402ZM43.9085 2.79736C42.0359 4.72924 41.0249 6.91707 40.8867 9.62994C40.9684 12.1595 42.1638 13.9931 43.9085 15.7466C45.6016 14.549 46.6057 12.7894 47.0212 10.7716C47.3186 8.37065 46.6405 5.87262 45.1785 3.94287C44.7672 3.44781 44.4518 3.15962 43.9085 2.79736ZM2.70752 14.6509C2.36471 15.3726 2.43121 15.9479 2.47095 16.7427C3.53869 16.6842 3.53869 16.6842 4.35108 16.033C4.4538 15.8727 4.55652 15.7125 4.66236 15.5474C4.44564 14.8999 4.44564 14.8999 4.0647 14.352C3.46342 14.2729 3.18292 14.2574 2.70752 14.6509ZM83.5779 14.7007C83.318 15.1269 83.318 15.1269 83.3787 15.5598C83.5907 16.0292 83.7251 16.2456 84.1506 16.5435C84.8699 16.689 84.8699 16.689 85.5452 16.7427C85.6024 15.7696 85.6099 15.1058 84.9475 14.352C84.2942 14.205 84.0699 14.2415 83.5779 14.7007ZM28.7678 17.5395C28.8371 19.4456 29.8464 20.7461 31.1997 22.0336C31.9052 22.6008 32.6044 22.8799 33.5117 22.9807C33.9886 22.9571 33.9886 22.9571 34.346 22.52C34.3716 21.4428 33.8534 20.8659 33.1538 20.1193C32.0881 19.0887 30.3211 17.5395 28.7678 17.5395ZM55.1519 19.843C55.0498 19.9344 54.9477 20.0258 54.8426 20.1199C54.2559 20.6713 53.883 21.1415 53.6702 21.9224C53.729 22.467 53.729 22.467 53.8694 22.9185C55.5956 22.8417 56.4918 22.3442 57.6795 21.0757C58.4897 20.1319 59.1925 19.2046 59.2981 17.938C59.2734 17.7408 59.2734 17.7408 59.2483 17.5395C57.676 17.5395 56.269 18.8311 55.1519 19.843ZM43.9085 19.9302C42.6618 21.6075 41.4218 23.3246 41.5178 25.5083C41.8497 26.6797 42.3398 27.2252 43.3108 27.8989C43.6944 28.1278 43.6944 28.1278 44.1077 28.0981C45.1254 27.73 45.6979 27.1984 46.2991 26.3052C46.7477 24.8752 46.2736 23.4631 45.622 22.1636C45.1262 21.3104 44.627 20.6115 43.9085 19.9302ZM40.9202 20.727C39.6381 21.9105 38.5148 22.9605 38.2307 24.7363C38.4209 25.8301 39.1315 26.5653 39.9241 27.3013C40.1213 27.2027 40.1213 27.2027 40.3225 27.102C40.2568 26.9706 40.191 26.8391 40.1233 26.7036C39.9649 24.8072 40.0491 23.3095 40.9209 21.5753C41.0192 21.3526 41.0192 21.3526 41.1194 21.1255C41.0536 20.994 40.9879 20.8625 40.9202 20.727ZM46.8967 20.727C46.9501 20.8873 47.0036 21.0475 47.0586 21.2126C47.1367 21.4468 47.2147 21.6811 47.2952 21.9224C47.3478 22.0479 47.4005 22.1735 47.4547 22.3029C48.0615 23.8414 48.1817 25.7072 47.6936 27.3013C48.5111 26.9985 49.0326 26.4329 49.4866 25.7075C49.8092 24.7754 49.694 24.2018 49.2998 23.3293C48.7372 22.2945 47.9973 21.481 47.096 20.727C47.0302 20.727 46.9645 20.727 46.8967 20.727Z" fill="#B87000"></path>
  </symbol>
  <symbol fill="none" xmlns="http://www.w3.org/2000/svg" viewBox="0 0 18 18" id="x">
    <path d="M7.76288 9L0.505629 1.7445C0.424275 1.66315 0.359741 1.56656 0.315713 1.46027C0.271685 1.35398 0.249023 1.24005 0.249023 1.125C0.249023 1.00995 0.271685 0.896022 0.315713 0.789728C0.359741 0.683434 0.424275 0.586853 0.505629 0.505499C0.586982 0.424145 0.683564 0.359612 0.789858 0.315583C0.896152 0.271555 1.01008 0.248894 1.12513 0.248894C1.24018 0.248894 1.35411 0.271555 1.4604 0.315583C1.56669 0.359612 1.66328 0.424145 1.74463 0.505499L9.00013 7.76275L16.2556 0.505499C16.4199 0.341197 16.6428 0.248894 16.8751 0.248894C17.1075 0.248894 17.3303 0.341197 17.4946 0.505499C17.6589 0.6698 17.7512 0.892641 17.7512 1.125C17.7512 1.35736 17.6589 1.5802 17.4946 1.7445L10.2374 9L17.4946 16.2555C17.6589 16.4198 17.7512 16.6426 17.7512 16.875C17.7512 17.1074 17.6589 17.3302 17.4946 17.4945C17.3303 17.6588 17.1075 17.7511 16.8751 17.7511C16.6428 17.7511 16.4199 17.6588 16.2556 17.4945L9.00013 10.2372L1.74463 17.4945C1.58033 17.6588 1.35749 17.7511 1.12513 17.7511C0.892771 17.7511 0.66993 17.6588 0.505629 17.4945C0.341327 17.3302 0.249023 17.1074 0.249023 16.875C0.249023 16.6426 0.341327 16.4198 0.505629 16.2555L7.76288 9Z" fill="#1D1D1D"></path>
  </symbol>
  <symbol fill="none" xmlns="http://www.w3.org/2000/svg" viewBox="0 0 22 20" id="burger-menu">
    <path d="M0.5 1.375C0.5 1.14294 0.592187 0.920376 0.756282 0.756282C0.920376 0.592187 1.14294 0.5 1.375 0.5H20.625C20.8571 0.5 21.0796 0.592187 21.2437 0.756282C21.4078 0.920376 21.5 1.14294 21.5 1.375C21.5 1.60706 21.4078 1.82962 21.2437 1.99372C21.0796 2.15781 20.8571 2.25 20.625 2.25H1.375C1.14294 2.25 0.920376 2.15781 0.756282 1.99372C0.592187 1.82962 0.5 1.60706 0.5 1.375ZM0.5 10.125C0.5 9.89294 0.592187 9.67038 0.756282 9.50628C0.920376 9.34219 1.14294 9.25 1.375 9.25H20.625C20.8571 9.25 21.0796 9.34219 21.2437 9.50628C21.4078 9.67038 21.5 9.89294 21.5 10.125C21.5 10.3571 21.4078 10.5796 21.2437 10.7437C21.0796 10.9078 20.8571 11 20.625 11H1.375C1.14294 11 0.920376 10.9078 0.756282 10.7437C0.592187 10.5796 0.5 10.3571 0.5 10.125ZM1.375 18C1.14294 18 0.920376 18.0922 0.756282 18.2563C0.592187 18.4204 0.5 18.6429 0.5 18.875C0.5 19.1071 0.592187 19.3296 0.756282 19.4937C0.920376 19.6578 1.14294 19.75 1.375 19.75H20.625C20.8571 19.75 21.0796 19.6578 21.2437 19.4937C21.4078 19.3296 21.5 19.1071 21.5 18.875C21.5 18.6429 21.4078 18.4204 21.2437 18.2563C21.0796 18.0922 20.8571 18 20.625 18H1.375Z" fill="#1D1D1D"></path>
  </symbol>
</svg>